<svg width="1957" height="221" viewBox="0 0 1957 221" fill="none" xmlns="http://www.w3.org/2000/svg">
<rect width="1957" height="221" fill="#F9F9F9"/>
<path d="M763.944 101.92C761.96 101.92 760.072 101.344 758.28 100.192C756.488 99.04 755.144 97.344 754.248 95.104C753.928 94.272 753.704 93.376 753.576 92.416C753.512 91.456 753.48 90.528 753.48 89.632V88.384C753.48 87.936 753.512 87.52 753.576 87.136C753.704 86.752 753.96 86.56 754.344 86.56C754.472 86.56 754.536 86.624 754.536 86.752C754.536 87.136 754.504 87.52 754.44 87.904C754.44 88.288 754.44 88.672 754.44 89.056C754.44 92.064 755.176 94.336 756.648 95.872C758.184 97.408 760.072 98.176 762.312 98.176C764.552 98.176 766.728 97.536 768.84 96.256C770.952 94.976 772.904 93.344 774.696 91.36C776.168 89.76 777.608 87.68 779.016 85.12C780.488 82.56 781.992 79.808 783.528 76.864C781.48 76.928 779.336 77.024 777.096 77.152C774.856 77.216 772.808 77.408 770.952 77.728C770.376 77.792 770.216 77.632 770.472 77.248C770.728 76.864 771.208 76.384 771.912 75.808C772.616 75.232 773.352 74.72 774.12 74.272C774.952 73.824 775.624 73.568 776.136 73.504C777.224 73.568 778.568 73.632 780.168 73.696C781.832 73.696 783.464 73.728 785.064 73.792C786.472 71.232 787.816 68.64 789.096 66.016C790.44 63.328 791.688 60.832 792.84 58.528C793.48 57.248 794.312 55.968 795.336 54.688C796.424 53.344 797.608 52.16 798.888 51.136C800.232 50.112 801.608 49.472 803.016 49.216C799.624 49.344 796.104 49.44 792.456 49.504C788.872 49.568 785.448 50.048 782.184 50.944C780.712 51.328 779.4 51.84 778.248 52.48C777.096 53.12 776.264 53.92 775.752 54.88C775.24 55.84 774.984 56.896 774.984 58.048C774.984 59.648 775.432 60.8 776.328 61.504C776.392 61.568 776.424 61.632 776.424 61.696C776.424 61.824 776.296 61.952 776.04 62.08C775.848 62.208 775.656 62.24 775.464 62.176C774.888 61.856 774.184 61.088 773.352 59.872C772.52 58.592 772.008 57.536 771.816 56.704C771.624 55.936 771.528 55.232 771.528 54.592C771.528 52.928 772.072 51.648 773.16 50.752C774.248 49.792 775.624 49.12 777.288 48.736C778.952 48.288 780.648 48.032 782.376 47.968C784.104 47.84 785.64 47.776 786.984 47.776H797.64C800.072 47.776 802.184 47.776 803.976 47.776C805.768 47.712 807.208 47.584 808.296 47.392C808.424 47.392 808.52 47.392 808.584 47.392C808.648 47.328 808.712 47.296 808.776 47.296C809.16 47.296 809.352 47.424 809.352 47.68C809.352 47.936 809.224 48.192 808.968 48.448C808.776 48.64 808.616 48.736 808.488 48.736C806.504 48.928 804.648 49.792 802.92 51.328C801.192 52.864 799.624 54.848 798.216 57.28C797.832 57.984 797.128 59.296 796.104 61.216C795.08 63.136 793.96 65.248 792.744 67.552C791.528 69.856 790.408 72 789.384 73.984C790.6 74.048 791.592 74.112 792.36 74.176C793.192 74.176 793.672 74.176 793.8 74.176H807.912C808.488 74.176 809.544 74.08 811.08 73.888C812.68 73.696 813.896 73.408 814.728 73.024C816.456 69.696 818.216 66.4 820.008 63.136C821.8 59.872 823.464 56.96 825 54.4C826.6 51.776 827.848 49.888 828.744 48.736C829.832 48.288 831.048 47.744 832.392 47.104C833.8 46.464 835.176 45.888 836.52 45.376C837.928 44.864 839.176 44.608 840.264 44.608C840.584 44.608 840.904 44.704 841.224 44.896C841.608 45.088 841.8 45.28 841.8 45.472C841.8 45.792 841.16 45.952 839.88 45.952C839.24 45.952 838.568 46.08 837.864 46.336C837.16 46.528 836.264 47.2 835.176 48.352C834.28 49.248 833.096 50.784 831.624 52.96C830.216 55.072 828.68 57.568 827.016 60.448C825.352 63.264 823.656 66.24 821.928 69.376C820.264 72.512 818.696 75.584 817.224 78.592C815.752 81.536 814.504 84.224 813.48 86.656C812.456 89.024 811.784 90.848 811.464 92.128C811.4 92.576 811.304 93.088 811.176 93.664C811.112 94.176 811.08 94.688 811.08 95.2C811.08 96.224 811.336 97.12 811.848 97.888C812.36 98.656 813.32 99.04 814.728 99.04C815.752 99.04 816.776 98.848 817.8 98.464C818.888 98.08 819.848 97.664 820.68 97.216C822.984 95.936 825.064 94.208 826.92 92.032C828.776 89.792 830.28 87.904 831.432 86.368C831.624 86.112 831.752 85.984 831.816 85.984C832.008 85.984 832.104 86.208 832.104 86.656C832.104 87.04 832.008 87.392 831.816 87.712C830.6 89.44 829 91.456 827.016 93.76C825.032 96 822.728 97.856 820.104 99.328C818.056 100.416 815.72 100.96 813.096 100.96C811.112 100.96 809.384 100.256 807.912 98.848C806.504 97.376 805.8 95.616 805.8 93.568C805.8 92.544 805.992 91.52 806.376 90.496C806.952 89.024 807.88 86.912 809.16 84.16C810.504 81.408 812.008 78.368 813.672 75.04C813.032 75.616 812.296 76.128 811.464 76.576C810.632 77.024 809.832 77.216 809.064 77.152C807.08 76.96 804.808 76.864 802.248 76.864C799.752 76.8 796.52 76.768 792.552 76.768H787.944C786.152 80.416 784.296 84 782.376 87.52C780.456 90.976 778.472 93.824 776.424 96.064C774.824 97.792 772.904 99.2 770.664 100.288C768.424 101.376 766.184 101.92 763.944 101.92ZM824.091 133.6C821.659 133.6 819.323 133.024 817.083 131.872C814.779 130.784 813.083 129.088 811.995 126.784C811.611 125.952 811.355 125.056 811.227 124.096C811.099 123.2 811.035 122.304 811.035 121.408V120.352C811.035 119.84 811.099 119.36 811.227 118.912C811.355 118.528 811.675 118.336 812.187 118.336C812.315 118.336 812.379 118.4 812.379 118.528C812.379 118.912 812.347 119.296 812.283 119.68C812.219 120.064 812.187 120.48 812.187 120.928C812.187 123.872 813.147 126.112 815.067 127.648C816.923 129.184 819.259 129.952 822.075 129.952C823.227 129.952 824.411 129.824 825.627 129.568C826.843 129.312 827.995 128.96 829.083 128.512C833.115 126.784 836.603 124.32 839.547 121.12C842.555 117.984 845.179 114.432 847.419 110.464C849.659 106.496 851.675 102.464 853.467 98.368C854.491 95.936 855.387 93.568 856.155 91.264C856.987 88.96 857.723 86.88 858.363 85.024C857.723 85.92 856.891 87.008 855.867 88.288C854.843 89.568 853.819 90.816 852.795 92.032C851.771 93.184 850.875 94.112 850.107 94.816C848.507 96.352 846.779 97.664 844.923 98.752C843.131 99.776 841.275 100.288 839.355 100.288C838.715 100.288 838.171 100.16 837.723 99.904C837.275 99.648 837.051 99.168 837.051 98.464C837.051 97.568 837.275 96.512 837.723 95.296C838.235 94.08 838.779 92.864 839.355 91.648C839.931 90.432 840.411 89.44 840.795 88.672C841.563 87.2 842.299 85.728 843.003 84.256C843.707 82.784 844.315 81.536 844.827 80.512C845.339 79.552 845.595 78.912 845.595 78.592C845.595 78.08 845.211 78.08 844.443 78.592C843.739 79.104 843.067 79.616 842.427 80.128C841.019 81.472 839.547 83.072 838.011 84.928C836.475 86.72 835.291 88.16 834.459 89.248C834.267 89.504 834.107 89.632 833.979 89.632C833.851 89.632 833.787 89.472 833.787 89.152C833.787 88.64 833.947 88.16 834.267 87.712C835.163 86.432 836.219 85.024 837.435 83.488C838.651 81.952 839.899 80.48 841.179 79.072C842.395 77.792 843.643 76.544 844.923 75.328C846.203 74.112 847.835 73.504 849.819 73.504C851.163 73.504 851.835 74.016 851.835 75.04C851.835 75.936 851.451 76.96 850.683 78.112C850.235 78.816 849.531 80 848.571 81.664C847.611 83.328 846.619 85.152 845.595 87.136C844.635 89.056 843.803 90.848 843.099 92.512C842.395 94.176 842.043 95.392 842.043 96.16C842.043 97.056 842.491 97.504 843.387 97.504C844.091 97.504 844.955 97.152 845.979 96.448C847.003 95.68 848.059 94.784 849.147 93.76C851.003 91.968 852.699 89.984 854.235 87.808C855.835 85.632 857.211 83.552 858.363 81.568C858.555 81.248 858.875 80.672 859.323 79.84C859.835 79.008 860.347 78.208 860.859 77.44C861.435 76.672 861.883 76.224 862.203 76.096C862.523 75.968 863.163 75.616 864.123 75.04C865.083 74.464 866.043 74.08 867.003 73.888C867.899 73.696 868.571 73.6 869.019 73.6C869.723 73.6 870.075 73.792 870.075 74.176C870.075 74.688 869.787 74.944 869.211 74.944C868.507 74.944 867.867 75.136 867.291 75.52C866.715 75.84 866.267 76.256 865.947 76.768C865.371 77.6 864.539 79.104 863.451 81.28C862.427 83.456 861.275 85.984 859.995 88.864C858.779 91.68 857.563 94.56 856.347 97.504C855.131 100.384 854.011 103.04 852.987 105.472C851.451 109.12 849.691 112.672 847.707 116.128C845.723 119.648 843.387 122.784 840.699 125.536C838.075 128.352 834.939 130.56 831.291 132.16C829.115 133.12 826.715 133.6 824.091 133.6ZM840.387 133.6C837.955 133.6 835.619 133.024 833.379 131.872C831.075 130.784 829.379 129.088 828.291 126.784C827.907 125.952 827.651 125.056 827.523 124.096C827.395 123.2 827.331 122.304 827.331 121.408V120.352C827.331 119.84 827.395 119.36 827.523 118.912C827.651 118.528 827.971 118.336 828.483 118.336C828.675 118.336 828.771 118.4 828.771 118.528C828.771 118.912 828.739 119.296 828.675 119.68C828.547 120.064 828.483 120.48 828.483 120.928C828.483 123.872 829.443 126.112 831.363 127.648C833.219 129.184 835.555 129.952 838.371 129.952C839.523 129.952 840.707 129.824 841.923 129.568C843.139 129.312 844.291 128.96 845.379 128.512C849.411 126.784 852.931 124.352 855.939 121.216C858.947 118.08 861.571 114.528 863.811 110.56C866.051 106.592 868.035 102.528 869.763 98.368C871.619 93.824 873.379 89.344 875.043 84.928C876.771 80.448 878.691 76.064 880.803 71.776C882.787 67.808 884.899 64.832 887.139 62.848C889.379 60.864 891.619 59.872 893.859 59.872C894.435 59.872 894.979 60.032 895.491 60.352C896.067 60.672 896.323 61.184 896.259 61.888L896.067 64.576C896.067 64.768 895.939 64.864 895.683 64.864C895.683 64.864 895.651 64.864 895.587 64.864C895.587 64.864 895.587 64.832 895.587 64.768C895.587 64 895.299 63.488 894.723 63.232C894.211 62.912 893.699 62.752 893.187 62.752C891.011 62.752 889.059 63.52 887.331 65.056C885.667 66.528 884.195 68.448 882.915 70.816C881.635 73.184 880.547 75.68 879.651 78.304C878.755 80.864 878.019 83.232 877.443 85.408C877.891 85.024 878.691 84.224 879.843 83.008C881.059 81.792 882.467 80.48 884.067 79.072C885.667 77.664 887.299 76.448 888.963 75.424C890.627 74.4 892.163 73.888 893.571 73.888C894.403 73.888 894.883 74.272 895.011 75.04C895.203 75.744 895.235 76.416 895.107 77.056C894.787 79.424 893.987 81.984 892.707 84.736C891.427 87.488 889.763 90.112 887.715 92.608C885.731 95.04 883.491 97.024 880.995 98.56C878.563 100.096 876.003 100.864 873.315 100.864C872.995 100.864 872.547 100.832 871.971 100.768C871.459 100.768 871.139 100.704 871.011 100.576C869.667 104.608 867.939 108.736 865.827 112.96C863.715 117.184 861.187 120.992 858.243 124.384C855.235 127.84 851.683 130.432 847.587 132.16C845.411 133.12 843.011 133.6 840.387 133.6ZM874.755 99.232C875.715 99.232 876.803 98.848 878.019 98.08C879.299 97.248 880.259 96.512 880.899 95.872C881.667 95.168 882.563 94.08 883.587 92.608C884.675 91.072 885.731 89.408 886.755 87.616C887.843 85.824 888.739 84.096 889.443 82.432C890.147 80.768 890.499 79.424 890.499 78.4C890.499 78.08 890.435 77.792 890.307 77.536C890.179 77.28 889.955 77.152 889.635 77.152C889.059 77.152 888.291 77.504 887.331 78.208C886.371 78.912 885.347 79.776 884.259 80.8C883.235 81.76 882.275 82.72 881.379 83.68C880.483 84.576 879.843 85.248 879.459 85.696C878.819 86.464 877.955 87.584 876.867 89.056C875.779 90.528 874.819 92.032 873.987 93.568C873.155 95.04 872.739 96.288 872.739 97.312C872.739 98.592 873.411 99.232 874.755 99.232ZM904.6 100.768C901.976 100.768 900.152 100.256 899.128 99.232C898.104 98.208 897.592 96.96 897.592 95.488C897.592 93.632 898.072 91.648 899.032 89.536C900.056 87.424 901.016 85.632 901.912 84.16C902.936 82.624 904.312 81.024 906.04 79.36C907.768 77.696 909.656 76.288 911.704 75.136C913.752 73.984 915.736 73.408 917.656 73.408C919.32 73.408 920.472 73.824 921.112 74.656C921.752 75.424 922.072 76.352 922.072 77.44C922.072 79.424 921.464 81.056 920.248 82.336C919.096 83.616 917.656 84.672 915.928 85.504C914.2 86.272 912.536 86.912 910.936 87.424C909.976 87.68 908.856 87.936 907.576 88.192C906.296 88.448 905.08 88.576 903.928 88.576C903.48 89.728 903.128 90.848 902.872 91.936C902.616 93.024 902.488 94.016 902.488 94.912C902.488 96 902.744 96.896 903.256 97.6C903.832 98.304 904.76 98.656 906.04 98.656C906.552 98.656 907.16 98.592 907.864 98.464C908.568 98.336 909.336 98.144 910.168 97.888C912.088 97.248 913.976 96.224 915.832 94.816C917.688 93.408 919.384 91.904 920.92 90.304C922.52 88.64 923.736 87.264 924.568 86.176C924.76 86.368 924.856 86.592 924.856 86.848C924.856 87.168 924.632 87.68 924.184 88.384C922.904 90.176 921.24 92.032 919.192 93.952C917.144 95.872 914.872 97.504 912.376 98.848C909.88 100.128 907.288 100.768 904.6 100.768ZM904.696 86.656C905.528 86.72 906.456 86.72 907.48 86.656C908.568 86.528 909.624 86.304 910.648 85.984C913.272 85.216 915.16 84 916.312 82.336C917.528 80.608 918.136 79.072 918.136 77.728C918.136 76.96 917.976 76.32 917.656 75.808C917.336 75.296 916.824 75.04 916.12 75.04C914.264 75.04 912.6 75.744 911.128 77.152C909.656 78.496 908.376 80.064 907.288 81.856C906.2 83.648 905.336 85.248 904.696 86.656ZM927.45 101.344C927.194 101.344 927.194 101.088 927.45 100.576C927.77 100 928.058 99.36 928.314 98.656C928.634 97.952 928.954 97.184 929.274 96.352C929.914 94.816 930.618 93.088 931.386 91.168C932.154 89.248 932.89 87.392 933.594 85.6C934.298 83.744 934.906 82.176 935.418 80.896C935.994 79.552 936.378 78.688 936.57 78.304C935.674 79.264 934.586 80.48 933.306 81.952C932.09 83.36 930.938 84.736 929.85 86.08C928.762 87.424 927.93 88.48 927.354 89.248C927.162 89.504 927.002 89.632 926.874 89.632C926.746 89.632 926.682 89.472 926.682 89.152C926.682 88.64 926.842 88.16 927.162 87.712C928.378 86.176 929.722 84.448 931.194 82.528C932.73 80.608 934.106 78.848 935.322 77.248C936.538 75.584 937.306 74.496 937.626 73.984C938.33 73.856 939.354 73.664 940.698 73.408C942.106 73.152 943.066 72.8 943.578 72.352C943.77 72.16 943.962 72.064 944.154 72.064C944.282 72.064 944.346 72.192 944.346 72.448C944.41 72.64 944.346 72.864 944.154 73.12C943.77 73.504 943.194 74.336 942.426 75.616C941.722 76.896 940.922 78.368 940.026 80.032C939.13 81.696 938.266 83.296 937.434 84.832C938.074 83.872 938.906 82.752 939.93 81.472C941.018 80.128 942.202 78.848 943.482 77.632C944.762 76.352 946.042 75.296 947.322 74.464C948.666 73.632 949.914 73.216 951.066 73.216C951.898 73.216 952.602 73.408 953.178 73.792C953.754 74.112 954.202 74.72 954.522 75.616C954.714 76.064 954.81 76.576 954.81 77.152C954.81 78.24 954.522 79.296 953.946 80.32C953.434 81.28 953.05 82.016 952.794 82.528C952.73 82.72 952.506 82.912 952.122 83.104C951.738 83.232 951.578 83.168 951.642 82.912C951.706 82.592 951.738 82.272 951.738 81.952C951.802 81.632 951.834 81.28 951.834 80.896C951.834 79.808 951.61 78.816 951.162 77.92C950.778 77.024 950.042 76.576 948.954 76.576C947.93 76.576 946.682 77.216 945.21 78.496C943.738 79.776 942.266 81.248 940.794 82.912C938.938 85.088 937.466 87.168 936.378 89.152C935.29 91.072 934.394 92.96 933.69 94.816C933.306 95.84 932.922 96.864 932.538 97.888C932.154 98.848 931.866 99.616 931.674 100.192C930.842 100.256 930.01 100.448 929.178 100.768C928.346 101.152 927.77 101.344 927.45 101.344ZM963.206 100.192C961.286 100.192 959.974 99.744 959.27 98.848C958.566 97.888 958.214 96.736 958.214 95.392C958.214 93.6 958.598 91.68 959.366 89.632C960.198 87.584 960.87 85.984 961.382 84.832C960.55 85.728 959.75 86.592 958.982 87.424C958.214 88.256 957.67 88.864 957.35 89.248C957.158 89.504 956.998 89.632 956.87 89.632C956.742 89.632 956.678 89.472 956.678 89.152C956.678 88.64 956.838 88.16 957.158 87.712C958.054 86.56 959.078 85.344 960.23 84.064C961.382 82.784 962.502 81.44 963.59 80.032C964.87 77.664 966.278 74.912 967.814 71.776C969.414 68.576 971.046 65.312 972.71 61.984C974.438 58.592 976.102 55.488 977.702 52.672C979.366 49.792 980.838 47.488 982.118 45.76C983.206 45.312 984.23 44.736 985.19 44.032C986.214 43.328 987.206 42.688 988.166 42.112C989.19 41.472 990.246 41.152 991.334 41.152C992.038 41.152 992.55 41.344 992.87 41.728C993.254 42.112 993.51 42.56 993.638 43.072C993.702 43.264 993.734 43.616 993.734 44.128C993.734 45.6 993.222 47.392 992.198 49.504C991.238 51.616 990.086 53.696 988.742 55.744C987.462 57.728 986.342 59.36 985.382 60.64C982.822 64.224 980.198 67.488 977.51 70.432C974.822 73.312 972.39 75.744 970.214 77.728C968.102 79.648 966.566 81.056 965.606 81.952C965.158 82.784 964.614 83.904 963.974 85.312C963.398 86.656 962.886 88.096 962.438 89.632C961.99 91.104 961.766 92.48 961.766 93.76C961.766 94.848 962.022 95.776 962.534 96.544C963.046 97.248 963.91 97.6 965.126 97.6C965.318 97.6 965.51 97.6 965.702 97.6C965.894 97.6 966.118 97.568 966.374 97.504C967.462 97.312 968.646 96.704 969.926 95.68C971.206 94.656 972.486 93.472 973.766 92.128C975.046 90.784 976.198 89.504 977.222 88.288C977.67 87.776 978.086 87.296 978.47 86.848C978.854 86.336 979.11 85.984 979.238 85.792C979.686 86.24 979.654 86.816 979.142 87.52C978.694 88.16 978.31 88.704 977.99 89.152C977.542 89.728 976.902 90.528 976.07 91.552C975.238 92.512 974.278 93.568 973.19 94.72C971.974 95.936 970.47 97.152 968.678 98.368C966.886 99.584 965.062 100.192 963.206 100.192ZM967.238 78.112C969.222 76.448 971.718 74.08 974.726 71.008C977.798 67.872 980.806 64.096 983.75 59.68C984.07 59.168 984.582 58.304 985.286 57.088C986.054 55.872 986.822 54.496 987.59 52.96C988.422 51.36 989.126 49.824 989.702 48.352C990.278 46.816 990.566 45.504 990.566 44.416C990.566 43.392 990.278 42.88 989.702 42.88C988.998 42.88 988.07 43.488 986.918 44.704C985.574 46.112 984.038 48.192 982.31 50.944C980.646 53.632 978.886 56.64 977.03 59.968C975.174 63.296 973.382 66.56 971.654 69.76C969.99 72.96 968.518 75.744 967.238 78.112ZM982.777 100.192C981.753 100.192 980.825 100 979.993 99.616C979.225 99.168 978.841 98.24 978.841 96.832C978.841 94.592 979.417 92.352 980.569 90.112C981.721 87.808 982.905 85.792 984.121 84.064C985.209 82.592 986.425 81.216 987.769 79.936C989.177 78.592 990.681 77.44 992.281 76.48C993.305 75.84 994.681 75.168 996.409 74.464C998.201 73.696 999.705 73.312 1000.92 73.312C1001.95 73.312 1002.84 73.6 1003.61 74.176C1004.38 74.688 1004.76 75.648 1004.76 77.056C1004.76 79.232 1004.19 81.472 1003.03 83.776C1001.95 86.016 1000.79 88 999.577 89.728C999.001 90.496 998.425 91.232 997.849 91.936C997.273 92.576 996.633 93.248 995.929 93.952C998.297 93.952 1000.47 93.28 1002.46 91.936C1004.44 90.528 1006.17 88.832 1007.64 86.848L1007.83 86.656C1008.03 86.656 1008.12 86.848 1008.12 87.232C1008.12 87.68 1007.99 88.096 1007.74 88.48C1006.46 90.272 1004.86 91.872 1002.94 93.28C1001.02 94.624 998.841 95.296 996.409 95.296C996.153 95.296 995.897 95.296 995.641 95.296C995.385 95.296 995.129 95.264 994.873 95.2C991.289 98.528 987.257 100.192 982.777 100.192ZM985.273 98.56C986.169 98.56 987.129 98.24 988.153 97.6C989.241 96.96 990.073 96.352 990.649 95.776C991.737 94.688 992.729 93.536 993.625 92.32C994.521 91.04 995.353 89.76 996.121 88.48C997.017 86.944 997.913 85.12 998.809 83.008C999.705 80.896 1000.15 78.912 1000.15 77.056C1000.15 75.584 999.641 74.848 998.617 74.848C997.785 74.848 996.761 75.2 995.545 75.904C994.393 76.608 993.529 77.248 992.953 77.824C990.777 80.064 988.953 82.496 987.481 85.12C986.649 86.592 985.753 88.32 984.793 90.304C983.833 92.288 983.353 94.112 983.353 95.776C983.353 96.032 983.353 96.288 983.353 96.544C983.417 96.736 983.481 96.96 983.545 97.216C983.801 98.112 984.377 98.56 985.273 98.56ZM1014.52 100.768C1012.15 100.768 1010.49 100.32 1009.53 99.424C1008.57 98.528 1008.09 97.376 1008.09 95.968C1008.09 94.112 1008.7 92.064 1009.91 89.824C1011.13 87.52 1012.28 85.6 1013.37 84.064C1014.46 82.592 1015.67 81.216 1017.02 79.936C1018.42 78.592 1019.93 77.44 1021.53 76.48C1022.55 75.84 1023.93 75.168 1025.66 74.464C1027.45 73.696 1028.95 73.312 1030.17 73.312C1031.64 73.312 1032.66 73.664 1033.24 74.368C1033.82 75.008 1034.1 75.808 1034.1 76.768C1034.1 77.536 1033.98 78.336 1033.72 79.168C1033.46 79.936 1033.18 80.672 1032.86 81.376C1032.66 81.76 1032.38 82.048 1031.99 82.24C1031.61 82.368 1031.42 82.304 1031.42 82.048C1031.42 81.728 1031.45 81.44 1031.51 81.184C1031.58 80.928 1031.61 80.64 1031.61 80.32C1031.61 79.104 1031.32 77.92 1030.74 76.768C1030.23 75.552 1029.43 74.944 1028.34 74.944C1027.19 74.944 1025.94 75.36 1024.6 76.192C1023.26 76.96 1022.33 77.632 1021.82 78.208C1020.15 79.936 1018.52 82.08 1016.92 84.64C1015.38 87.2 1014.26 89.632 1013.56 91.936C1013.11 93.28 1012.89 94.432 1012.89 95.392C1012.89 96.48 1013.18 97.248 1013.75 97.696C1014.33 98.144 1015.03 98.368 1015.86 98.368C1016.5 98.368 1017.18 98.272 1017.88 98.08C1018.65 97.888 1019.45 97.664 1020.28 97.408C1022.2 96.768 1024.12 95.776 1026.04 94.432C1028.02 93.024 1029.82 91.552 1031.42 90.016C1033.02 88.416 1034.23 87.04 1035.06 85.888C1035.19 86.016 1035.26 86.208 1035.26 86.464C1035.26 86.784 1035.13 87.168 1034.87 87.616C1034.62 88 1034.42 88.32 1034.3 88.576C1032.95 90.368 1031.19 92.224 1029.02 94.144C1026.84 96 1024.47 97.568 1021.91 98.848C1019.42 100.128 1016.95 100.768 1014.52 100.768ZM1050.26 100.288C1049.62 100.288 1049.07 100.16 1048.63 99.904C1048.18 99.648 1047.95 99.168 1047.95 98.464C1047.95 97.568 1048.18 96.544 1048.63 95.392C1049.07 94.24 1049.59 93.12 1050.16 92.032C1050.74 90.88 1051.25 89.952 1051.7 89.248C1049.46 91.616 1047.12 93.856 1044.69 95.968C1043.47 96.992 1042.13 97.952 1040.66 98.848C1039.19 99.744 1037.62 100.192 1035.95 100.192C1035.31 100.192 1034.87 100 1034.61 99.616C1034.35 99.168 1034.23 98.656 1034.23 98.08C1034.23 97.76 1034.26 97.536 1034.32 97.408C1034.64 94.912 1035.44 92.32 1036.72 89.632C1038 86.944 1039.57 84.416 1041.43 82.048C1043.28 79.68 1045.17 77.76 1047.09 76.288C1049.27 74.624 1051.67 73.792 1054.29 73.792H1065.33C1065.65 73.792 1065.81 73.92 1065.81 74.176C1065.81 74.688 1065.52 74.944 1064.95 74.944C1064.31 74.944 1063.67 75.36 1063.03 76.192C1062.39 76.96 1061.91 77.6 1061.59 78.112C1061.14 78.816 1060.43 80 1059.47 81.664C1058.51 83.328 1057.52 85.152 1056.5 87.136C1055.54 89.056 1054.71 90.848 1054 92.512C1053.3 94.176 1052.95 95.392 1052.95 96.16C1052.95 97.056 1053.39 97.504 1054.29 97.504C1055.25 97.504 1056.34 97.056 1057.55 96.16C1058.77 95.264 1059.99 94.176 1061.2 92.896C1062.48 91.552 1063.63 90.24 1064.66 88.96C1065.75 87.616 1066.61 86.56 1067.25 85.792C1067.63 86.176 1067.6 86.72 1067.15 87.424C1066.77 88.064 1066.42 88.576 1066.1 88.96C1064.82 90.624 1063.35 92.352 1061.68 94.144C1060.02 95.872 1058.19 97.344 1056.21 98.56C1054.29 99.712 1052.31 100.288 1050.26 100.288ZM1039.89 96.928C1040.66 96.928 1041.71 96.384 1043.06 95.296C1044.47 94.144 1045.97 92.736 1047.57 91.072C1049.17 89.344 1050.67 87.552 1052.08 85.696C1053.49 83.776 1054.64 82.048 1055.54 80.512C1056.5 78.912 1056.98 77.696 1056.98 76.864C1056.98 76.16 1056.75 75.68 1056.31 75.424C1055.92 75.168 1055.41 75.04 1054.77 75.04C1053.75 75.04 1052.63 75.424 1051.41 76.192C1050.26 76.896 1049.33 77.6 1048.63 78.304C1047.86 79.008 1046.93 80.128 1045.84 81.664C1044.82 83.136 1043.79 84.768 1042.77 86.56C1041.75 88.352 1040.88 90.08 1040.18 91.744C1039.47 93.408 1039.12 94.752 1039.12 95.776C1039.12 96.544 1039.38 96.928 1039.89 96.928ZM1075.6 100.192C1073.68 100.192 1072.37 99.744 1071.66 98.848C1070.96 97.888 1070.61 96.736 1070.61 95.392C1070.61 93.6 1070.99 91.68 1071.76 89.632C1072.59 87.584 1073.26 85.984 1073.77 84.832C1072.94 85.728 1072.14 86.592 1071.37 87.424C1070.61 88.256 1070.06 88.864 1069.74 89.248C1069.55 89.504 1069.39 89.632 1069.26 89.632C1069.13 89.632 1069.07 89.472 1069.07 89.152C1069.07 88.64 1069.23 88.16 1069.55 87.712C1070.45 86.56 1071.47 85.344 1072.62 84.064C1073.77 82.784 1074.89 81.44 1075.98 80.032C1077.26 77.664 1078.67 74.912 1080.21 71.776C1081.81 68.576 1083.44 65.312 1085.1 61.984C1086.83 58.592 1088.49 55.488 1090.09 52.672C1091.76 49.792 1093.23 47.488 1094.51 45.76C1095.6 45.312 1096.62 44.736 1097.58 44.032C1098.61 43.328 1099.6 42.688 1100.56 42.112C1101.58 41.472 1102.64 41.152 1103.73 41.152C1104.43 41.152 1104.94 41.344 1105.26 41.728C1105.65 42.112 1105.9 42.56 1106.03 43.072C1106.09 43.264 1106.13 43.616 1106.13 44.128C1106.13 45.6 1105.61 47.392 1104.59 49.504C1103.63 51.616 1102.48 53.696 1101.13 55.744C1099.85 57.728 1098.73 59.36 1097.77 60.64C1095.21 64.224 1092.59 67.488 1089.9 70.432C1087.21 73.312 1084.78 75.744 1082.61 77.728C1080.49 79.648 1078.96 81.056 1078 81.952C1077.55 82.784 1077.01 83.904 1076.37 85.312C1075.79 86.656 1075.28 88.096 1074.83 89.632C1074.38 91.104 1074.16 92.48 1074.16 93.76C1074.16 94.848 1074.41 95.776 1074.93 96.544C1075.44 97.248 1076.3 97.6 1077.52 97.6C1077.71 97.6 1077.9 97.6 1078.09 97.6C1078.29 97.6 1078.51 97.568 1078.77 97.504C1079.85 97.312 1081.04 96.704 1082.32 95.68C1083.6 94.656 1084.88 93.472 1086.16 92.128C1087.44 90.784 1088.59 89.504 1089.61 88.288C1090.06 87.776 1090.48 87.296 1090.86 86.848C1091.25 86.336 1091.5 85.984 1091.63 85.792C1092.08 86.24 1092.05 86.816 1091.53 87.52C1091.09 88.16 1090.7 88.704 1090.38 89.152C1089.93 89.728 1089.29 90.528 1088.46 91.552C1087.63 92.512 1086.67 93.568 1085.58 94.72C1084.37 95.936 1082.86 97.152 1081.07 98.368C1079.28 99.584 1077.45 100.192 1075.6 100.192ZM1079.63 78.112C1081.61 76.448 1084.11 74.08 1087.12 71.008C1090.19 67.872 1093.2 64.096 1096.14 59.68C1096.46 59.168 1096.97 58.304 1097.68 57.088C1098.45 55.872 1099.21 54.496 1099.98 52.96C1100.81 51.36 1101.52 49.824 1102.09 48.352C1102.67 46.816 1102.96 45.504 1102.96 44.416C1102.96 43.392 1102.67 42.88 1102.09 42.88C1101.39 42.88 1100.46 43.488 1099.31 44.704C1097.97 46.112 1096.43 48.192 1094.7 50.944C1093.04 53.632 1091.28 56.64 1089.42 59.968C1087.57 63.296 1085.77 66.56 1084.05 69.76C1082.38 72.96 1080.91 75.744 1079.63 78.112Z" fill="black"/>
<path d="M856.136 164.96C854.152 164.96 852.264 164.416 850.472 163.328C848.68 162.176 847.336 160.448 846.44 158.144C846.12 157.312 845.896 156.448 845.768 155.552C845.64 154.592 845.576 153.664 845.576 152.768C845.576 151.872 845.736 151.424 846.056 151.424C846.44 151.424 846.632 151.68 846.632 152.192C846.632 155.2 847.368 157.472 848.84 159.008C850.376 160.544 852.264 161.312 854.504 161.312C856.744 161.312 858.888 160.672 860.936 159.392C863.048 158.112 865 156.48 866.792 154.496C869.736 151.296 872.232 148.064 874.28 144.8C876.328 141.472 878.184 138.08 879.848 134.624C881.576 131.104 883.304 127.456 885.032 123.68C886.12 121.376 887.464 119.36 889.064 117.632C890.728 115.904 892.712 114.72 895.016 114.08L895.112 113.984H889.832C887.592 113.984 885.224 114.08 882.728 114.272C880.232 114.464 877.96 114.88 875.912 115.52C873.928 116.16 872.488 117.12 871.592 118.4C871.016 119.232 870.728 120.192 870.728 121.28C870.728 122.368 871.016 123.424 871.592 124.448C872.168 125.472 872.904 126.208 873.8 126.656C873.928 126.784 873.992 126.88 873.992 126.944C873.992 127.072 873.832 127.232 873.512 127.424C873.256 127.552 872.968 127.584 872.648 127.52C872.136 127.2 871.496 126.688 870.728 125.984C869.96 125.216 869.256 124.416 868.616 123.584C868.04 122.752 867.656 122.048 867.464 121.472C867.208 120.704 867.08 119.936 867.08 119.168C867.08 117.632 867.624 116.384 868.712 115.424C869.864 114.464 871.336 113.728 873.128 113.216C874.92 112.704 876.84 112.352 878.888 112.16C881 111.904 883.016 111.776 884.936 111.776C886.92 111.712 888.616 111.68 890.024 111.68H900.392C900.52 111.68 900.584 111.712 900.584 111.776C900.584 111.968 900.36 112.256 899.912 112.64C899.528 112.96 899.272 113.12 899.144 113.12C897.544 113.44 896.36 114.304 895.592 115.712C894.824 117.056 894.472 119.232 894.536 122.24C894.536 122.24 894.536 122.944 894.536 124.352C894.6 125.76 894.664 127.584 894.728 129.824C894.792 132.064 894.856 134.464 894.92 137.024C894.984 139.584 895.048 142.048 895.112 144.416C895.176 146.784 895.24 148.768 895.304 150.368V150.944L928.616 115.808C930.728 113.568 932.808 111.68 934.856 110.144C936.968 108.544 939.144 107.84 941.384 108.032C941.448 108.032 941.48 108.064 941.48 108.128C941.544 108.128 941.576 108.128 941.576 108.128C941.576 108.32 941.448 108.544 941.192 108.8C940.936 109.056 940.648 109.216 940.328 109.28C938.664 109.216 937.16 109.856 935.816 111.2C934.472 112.544 933.224 114.144 932.072 116C931.496 116.96 930.632 118.496 929.48 120.608C928.328 122.656 927.016 125.088 925.544 127.904C924.136 130.72 922.696 133.696 921.224 136.832C919.752 139.968 918.376 143.04 917.096 146.048C915.88 149.056 914.888 151.808 914.12 154.304C913.352 156.736 912.968 158.72 912.968 160.256C912.968 162.048 913.576 162.944 914.792 162.944C915.304 162.944 915.848 162.816 916.424 162.56C917.256 162.24 918.184 161.76 919.208 161.12C920.232 160.48 921.16 159.744 921.992 158.912C923.656 157.312 925.128 155.68 926.408 154.016C927.688 152.288 928.456 151.296 928.712 151.04C928.904 150.784 929.064 150.656 929.192 150.656C929.448 150.656 929.576 150.848 929.576 151.232C929.576 151.616 929.448 151.968 929.192 152.288C928.68 152.928 927.816 154.048 926.6 155.648C925.384 157.184 923.944 158.752 922.28 160.352C920.68 161.952 918.952 163.168 917.096 164C916.52 164.256 915.912 164.448 915.272 164.576C914.632 164.768 913.992 164.864 913.352 164.864C911.944 164.864 910.664 164.448 909.512 163.616C908.424 162.72 907.88 161.248 907.88 159.2C907.88 157.216 908.328 154.976 909.224 152.48C910.184 149.92 911.24 147.456 912.392 145.088C913.608 142.656 914.6 140.608 915.368 138.944C916.2 137.216 917.256 135.008 918.536 132.32C919.816 129.632 921.288 126.912 922.952 124.16L895.304 153.344C895.24 153.856 895.016 154.368 894.632 154.88C894.248 155.328 893.64 155.712 892.808 156.032C892.36 156.224 891.752 156.736 890.984 157.568C890.216 158.4 889.704 158.976 889.448 159.296C889.448 159.36 889.352 159.392 889.16 159.392C888.968 159.392 888.776 159.328 888.584 159.2C888.392 159.072 888.328 158.976 888.392 158.912C890.056 156.8 890.92 153.888 890.984 150.176L891.08 147.872C891.208 145.184 891.304 142.368 891.368 139.424C891.432 136.416 891.464 133.632 891.464 131.072C891.528 128.448 891.56 126.336 891.56 124.736C891.56 123.072 891.56 122.24 891.56 122.24C891.56 120.704 891.784 119.36 892.232 118.208C892.68 117.056 893.224 116.064 893.864 115.232C892.776 116.064 891.72 117.056 890.696 118.208C889.672 119.36 888.808 120.64 888.104 122.048C887.144 124.032 886.056 126.592 884.84 129.728C883.624 132.864 882.216 136.192 880.616 139.712C879.08 143.232 877.352 146.688 875.432 150.08C873.576 153.408 871.496 156.288 869.192 158.72C867.592 160.448 865.544 161.92 863.048 163.136C860.616 164.352 858.312 164.96 856.136 164.96ZM943.887 164.288C943.247 164.288 942.703 164.16 942.255 163.904C941.807 163.648 941.583 163.168 941.583 162.464C941.583 161.568 941.807 160.544 942.255 159.392C942.703 158.24 943.215 157.12 943.791 156.032C944.367 154.88 944.879 153.952 945.327 153.248C943.087 155.616 940.751 157.856 938.319 159.968C937.103 160.992 935.759 161.952 934.287 162.848C932.815 163.744 931.247 164.192 929.583 164.192C928.943 164.192 928.495 164 928.239 163.616C927.983 163.168 927.855 162.656 927.855 162.08C927.855 161.76 927.887 161.536 927.951 161.408C928.271 158.912 929.071 156.32 930.351 153.632C931.631 150.944 933.199 148.416 935.055 146.048C936.911 143.68 938.799 141.76 940.719 140.288C942.895 138.624 945.295 137.792 947.919 137.792H958.959C959.279 137.792 959.439 137.92 959.439 138.176C959.439 138.688 959.151 138.944 958.575 138.944C957.935 138.944 957.295 139.36 956.655 140.192C956.015 140.96 955.535 141.6 955.215 142.112C954.767 142.816 954.063 144 953.103 145.664C952.143 147.328 951.151 149.152 950.127 151.136C949.167 153.056 948.335 154.848 947.631 156.512C946.927 158.176 946.575 159.392 946.575 160.16C946.575 161.056 947.023 161.504 947.919 161.504C948.879 161.504 949.967 161.056 951.183 160.16C952.399 159.264 953.615 158.176 954.831 156.896C956.111 155.552 957.263 154.24 958.287 152.96C959.375 151.616 960.239 150.56 960.879 149.792C961.263 150.176 961.231 150.72 960.783 151.424C960.399 152.064 960.047 152.576 959.727 152.96C958.447 154.624 956.975 156.352 955.311 158.144C953.647 159.872 951.823 161.344 949.839 162.56C947.919 163.712 945.935 164.288 943.887 164.288ZM933.519 160.928C934.287 160.928 935.343 160.384 936.687 159.296C938.095 158.144 939.599 156.736 941.199 155.072C942.799 153.344 944.303 151.552 945.711 149.696C947.119 147.776 948.271 146.048 949.167 144.512C950.127 142.912 950.607 141.696 950.607 140.864C950.607 140.16 950.383 139.68 949.935 139.424C949.551 139.168 949.039 139.04 948.399 139.04C947.375 139.04 946.255 139.424 945.039 140.192C943.887 140.896 942.959 141.6 942.255 142.304C941.487 143.008 940.559 144.128 939.471 145.664C938.447 147.136 937.423 148.768 936.399 150.56C935.375 152.352 934.511 154.08 933.807 155.744C933.103 157.408 932.751 158.752 932.751 159.776C932.751 160.544 933.007 160.928 933.519 160.928ZM962.506 165.344C962.25 165.344 962.25 165.088 962.506 164.576C962.826 164 963.114 163.36 963.37 162.656C963.69 161.952 964.01 161.184 964.33 160.352C964.97 158.816 965.674 157.088 966.442 155.168C967.21 153.248 967.946 151.392 968.65 149.6C969.354 147.744 969.962 146.176 970.474 144.896C971.05 143.552 971.434 142.688 971.626 142.304C970.73 143.264 969.642 144.48 968.362 145.952C967.146 147.36 965.994 148.736 964.906 150.08C963.818 151.424 962.986 152.48 962.41 153.248C962.218 153.504 962.058 153.632 961.93 153.632C961.802 153.632 961.738 153.472 961.738 153.152C961.738 152.64 961.898 152.16 962.218 151.712C963.434 150.176 964.778 148.448 966.25 146.528C967.786 144.608 969.162 142.848 970.378 141.248C971.594 139.584 972.362 138.496 972.682 137.984C973.386 137.856 974.41 137.664 975.754 137.408C977.162 137.152 978.122 136.8 978.634 136.352C978.826 136.16 979.018 136.064 979.21 136.064C979.338 136.064 979.402 136.192 979.402 136.448C979.466 136.64 979.402 136.864 979.21 137.12C978.826 137.504 978.25 138.336 977.482 139.616C976.778 140.896 975.978 142.368 975.082 144.032C974.186 145.696 973.322 147.296 972.49 148.832C973.13 147.872 973.962 146.752 974.986 145.472C976.074 144.128 977.258 142.848 978.538 141.632C979.818 140.352 981.098 139.296 982.378 138.464C983.722 137.632 984.97 137.216 986.122 137.216C986.954 137.216 987.658 137.408 988.234 137.792C988.81 138.112 989.258 138.72 989.578 139.616C989.77 140.064 989.866 140.576 989.866 141.152C989.866 142.24 989.578 143.296 989.002 144.32C988.49 145.28 988.106 146.016 987.85 146.528C987.786 146.72 987.562 146.912 987.178 147.104C986.794 147.232 986.634 147.168 986.698 146.912C986.762 146.592 986.794 146.272 986.794 145.952C986.858 145.632 986.89 145.28 986.89 144.896C986.89 143.808 986.666 142.816 986.218 141.92C985.834 141.024 985.098 140.576 984.01 140.576C982.986 140.576 981.738 141.216 980.266 142.496C978.794 143.776 977.322 145.248 975.85 146.912C973.994 149.088 972.522 151.168 971.434 153.152C970.346 155.072 969.45 156.96 968.746 158.816C968.362 159.84 967.978 160.864 967.594 161.888C967.21 162.848 966.922 163.616 966.73 164.192C965.898 164.256 965.066 164.448 964.234 164.768C963.402 165.152 962.826 165.344 962.506 165.344ZM1008.15 164.48C1006.55 164.48 1005.33 163.936 1004.5 162.848C1003.99 162.08 1003.48 160.928 1002.97 159.392C1002.45 157.856 1002.01 156.256 1001.62 154.592C1001.24 152.928 1000.92 151.584 1000.66 150.56C998.871 152.864 997.27 155.168 995.862 157.472C994.518 159.776 993.622 161.568 993.174 162.848C993.046 163.232 992.598 163.552 991.83 163.808C991.126 164.064 990.422 164.192 989.718 164.192C988.694 164.192 988.31 163.872 988.566 163.232C990.55 158.816 992.438 154.56 994.23 150.464C996.022 146.368 997.91 142.24 999.894 138.08C1001.94 133.92 1004.25 129.6 1006.81 125.12C1008.6 121.856 1010.74 118.72 1013.24 115.712C1015.8 112.64 1018.52 110.144 1021.4 108.224C1024.28 106.24 1027.19 105.248 1030.13 105.248C1031.09 105.248 1031.99 105.504 1032.82 106.016C1033.65 106.528 1034.07 107.328 1034.07 108.416V111.2C1034.07 111.456 1033.88 111.584 1033.49 111.584C1033.3 111.584 1033.21 111.52 1033.21 111.392C1033.21 110.368 1032.76 109.696 1031.86 109.376C1030.97 108.992 1030.1 108.8 1029.27 108.8C1027.03 108.8 1024.76 109.248 1022.45 110.144C1019.89 111.168 1017.75 112.704 1016.02 114.752C1014.29 116.8 1012.69 118.976 1011.22 121.28C1009.3 124.224 1007.41 127.68 1005.56 131.648C1003.7 135.552 1001.97 139.488 1000.37 143.456C998.838 147.424 997.462 151.008 996.246 154.208C996.95 153.312 997.654 152.416 998.359 151.52C999.063 150.624 999.734 149.792 1000.37 149.024C1000.37 148.896 1000.34 148.768 1000.28 148.64C1000.28 148.512 1000.28 148.384 1000.28 148.256C1000.28 147.808 1000.37 147.424 1000.57 147.104C1000.76 146.784 1001.01 146.4 1001.33 145.952C1001.78 145.312 1002.2 144.832 1002.58 144.512C1002.97 144.128 1003.38 143.648 1003.83 143.072L1004.12 144.704C1006.93 141.824 1009.4 139.744 1011.51 138.464C1012.98 137.568 1014.42 137.12 1015.83 137.12C1017.24 137.12 1017.94 137.664 1017.94 138.752C1017.94 139.648 1017.49 140.768 1016.6 142.112C1016.28 142.56 1016.09 142.88 1016.02 143.072C1015.96 143.264 1015.83 143.456 1015.64 143.648C1015.57 143.712 1015.45 143.712 1015.25 143.648C1015.06 143.584 1014.97 143.488 1014.97 143.36C1014.97 142.592 1014.71 142.112 1014.2 141.92C1013.69 141.664 1013.11 141.536 1012.47 141.536C1011.25 141.536 1009.94 141.984 1008.53 142.88C1007.19 143.712 1005.81 144.864 1004.41 146.336C1004.73 147.936 1005.08 149.696 1005.46 151.616C1005.91 153.472 1006.39 155.2 1006.9 156.8C1007.41 158.4 1007.89 159.584 1008.34 160.352C1008.66 160.864 1009.11 161.216 1009.69 161.408C1010.26 161.536 1010.74 161.6 1011.13 161.6C1012.02 161.6 1013.05 161.152 1014.2 160.256C1015.41 159.296 1016.63 158.176 1017.85 156.896C1019.13 155.552 1020.28 154.24 1021.3 152.96C1022.39 151.68 1023.22 150.656 1023.8 149.888C1024.05 150.208 1024.12 150.528 1023.99 150.848C1023.93 151.232 1023.73 151.648 1023.41 152.096C1023.16 152.48 1022.9 152.832 1022.65 153.152C1021.37 154.752 1019.99 156.384 1018.52 158.048C1017.05 159.648 1015.48 161.088 1013.81 162.368C1013.11 162.944 1012.25 163.456 1011.22 163.904C1010.2 164.288 1009.17 164.48 1008.15 164.48ZM1030.44 164.768C1027.82 164.768 1026 164.256 1024.97 163.232C1023.95 162.208 1023.44 160.96 1023.44 159.488C1023.44 157.632 1023.92 155.648 1024.88 153.536C1025.9 151.424 1026.86 149.632 1027.76 148.16C1028.78 146.624 1030.16 145.024 1031.88 143.36C1033.61 141.696 1035.5 140.288 1037.55 139.136C1039.6 137.984 1041.58 137.408 1043.5 137.408C1045.16 137.408 1046.32 137.824 1046.96 138.656C1047.6 139.424 1047.92 140.352 1047.92 141.44C1047.92 143.424 1047.31 145.056 1046.09 146.336C1044.94 147.616 1043.5 148.672 1041.77 149.504C1040.04 150.272 1038.38 150.912 1036.78 151.424C1035.82 151.68 1034.7 151.936 1033.42 152.192C1032.14 152.448 1030.92 152.576 1029.77 152.576C1029.32 153.728 1028.97 154.848 1028.72 155.936C1028.46 157.024 1028.33 158.016 1028.33 158.912C1028.33 160 1028.59 160.896 1029.1 161.6C1029.68 162.304 1030.6 162.656 1031.88 162.656C1032.4 162.656 1033 162.592 1033.71 162.464C1034.41 162.336 1035.18 162.144 1036.01 161.888C1037.93 161.248 1039.82 160.224 1041.68 158.816C1043.53 157.408 1045.23 155.904 1046.76 154.304C1048.36 152.64 1049.58 151.264 1050.41 150.176C1050.6 150.368 1050.7 150.592 1050.7 150.848C1050.7 151.168 1050.48 151.68 1050.03 152.384C1048.75 154.176 1047.08 156.032 1045.04 157.952C1042.99 159.872 1040.72 161.504 1038.22 162.848C1035.72 164.128 1033.13 164.768 1030.44 164.768ZM1030.54 150.656C1031.37 150.72 1032.3 150.72 1033.32 150.656C1034.41 150.528 1035.47 150.304 1036.49 149.984C1039.12 149.216 1041 148 1042.16 146.336C1043.37 144.608 1043.98 143.072 1043.98 141.728C1043.98 140.96 1043.82 140.32 1043.5 139.808C1043.18 139.296 1042.67 139.04 1041.96 139.04C1040.11 139.04 1038.44 139.744 1036.97 141.152C1035.5 142.496 1034.22 144.064 1033.13 145.856C1032.04 147.648 1031.18 149.248 1030.54 150.656ZM1055.6 164.288C1054.96 164.288 1054.41 164.16 1053.97 163.904C1053.52 163.648 1053.29 163.168 1053.29 162.464C1053.29 161.568 1053.52 160.512 1053.97 159.296C1054.48 158.08 1055.02 156.864 1055.6 155.648C1056.17 154.432 1056.65 153.44 1057.04 152.672C1057.36 152.096 1057.77 151.2 1058.29 149.984C1058.86 148.704 1059.44 147.392 1060.01 146.048C1060.65 144.64 1061.17 143.456 1061.55 142.496C1062 141.536 1062.22 141.056 1062.22 141.056C1061.65 141.696 1060.88 142.592 1059.92 143.744C1059.02 144.896 1058.03 146.112 1056.94 147.392C1055.92 148.608 1054.96 149.76 1054.06 150.848C1053.23 151.936 1052.62 152.736 1052.24 153.248C1052.05 153.504 1051.89 153.632 1051.76 153.632C1051.63 153.632 1051.57 153.472 1051.57 153.152C1051.57 152.64 1051.73 152.16 1052.05 151.712C1052.81 150.752 1053.74 149.6 1054.83 148.256C1055.92 146.848 1057.01 145.44 1058.09 144.032C1059.25 142.624 1060.24 141.376 1061.07 140.288C1060.56 140.288 1059.89 140.32 1059.05 140.384C1058.29 140.448 1057.58 140.544 1056.94 140.672C1056.3 140.736 1055.95 140.768 1055.89 140.768C1055.57 140.768 1055.6 140.512 1055.98 140C1056.37 139.488 1056.88 138.976 1057.52 138.464C1058.16 137.952 1058.64 137.696 1058.96 137.696C1059.02 137.696 1059.53 137.728 1060.49 137.792C1061.45 137.792 1062.16 137.792 1062.61 137.792C1063.89 136.064 1065.13 134.08 1066.35 131.84C1067.63 129.6 1068.88 127.136 1070.09 124.448C1070.61 124.384 1071.47 124.032 1072.69 123.392C1073.97 122.688 1074.96 121.984 1075.66 121.28C1075.98 120.96 1076.24 120.8 1076.43 120.8C1076.81 120.8 1076.81 121.056 1076.43 121.568C1075.98 122.08 1075.21 123.168 1074.13 124.832C1073.04 126.432 1071.82 128.384 1070.48 130.688C1069.13 132.928 1067.85 135.296 1066.64 137.792H1074.41C1075.12 137.792 1075.47 137.888 1075.47 138.08C1075.47 138.336 1074.99 138.592 1074.03 138.848C1072.94 139.168 1071.79 139.36 1070.57 139.424C1069.42 139.488 1068.33 139.616 1067.31 139.808C1066.35 140 1065.65 140.416 1065.2 141.056C1064.81 141.504 1064.27 142.464 1063.57 143.936C1062.86 145.408 1062.09 147.104 1061.26 149.024C1060.49 150.88 1059.82 152.768 1059.25 154.688C1058.67 156.544 1058.32 158.112 1058.19 159.392V159.776C1058.19 160.288 1058.35 160.704 1058.67 161.024C1058.99 161.344 1059.31 161.504 1059.63 161.504C1060.46 161.504 1061.52 160.992 1062.8 159.968C1064.14 158.944 1065.52 157.728 1066.93 156.32C1068.33 154.848 1069.55 153.504 1070.57 152.288C1071.02 151.776 1071.41 151.296 1071.73 150.848C1072.11 150.4 1072.33 150.112 1072.4 149.984C1072.53 150.24 1072.59 150.432 1072.59 150.56C1072.59 150.944 1072.46 151.36 1072.21 151.808C1072.01 152.256 1071.79 152.64 1071.53 152.96C1070.32 154.56 1068.85 156.256 1067.12 158.048C1065.39 159.776 1063.53 161.248 1061.55 162.464C1059.63 163.68 1057.65 164.288 1055.6 164.288ZM1043.24 197.6C1040.8 197.6 1038.47 197.024 1036.23 195.872C1033.92 194.784 1032.23 193.088 1031.14 190.784C1030.76 189.952 1030.5 189.056 1030.37 188.096C1030.24 187.2 1030.18 186.304 1030.18 185.408V184.352C1030.18 183.84 1030.24 183.36 1030.37 182.912C1030.5 182.528 1030.82 182.336 1031.33 182.336C1031.52 182.336 1031.62 182.4 1031.62 182.528C1031.62 182.912 1031.59 183.296 1031.52 183.68C1031.4 184.064 1031.33 184.48 1031.33 184.928C1031.33 187.872 1032.29 190.112 1034.21 191.648C1036.07 193.184 1038.4 193.952 1041.22 193.952C1042.37 193.952 1043.56 193.824 1044.77 193.568C1045.99 193.312 1047.14 192.96 1048.23 192.512C1052.26 190.784 1055.78 188.352 1058.79 185.216C1061.8 182.08 1064.42 178.528 1066.66 174.56C1068.9 170.592 1070.88 166.528 1072.61 162.368C1074.47 157.824 1076.23 153.344 1077.89 148.928C1079.62 144.448 1081.54 140.064 1083.65 135.776C1085.64 131.808 1087.75 128.832 1089.99 126.848C1092.23 124.864 1094.47 123.872 1096.71 123.872C1097.29 123.872 1097.83 124.032 1098.34 124.352C1098.92 124.672 1099.17 125.184 1099.11 125.888L1098.92 128.576C1098.92 128.768 1098.79 128.864 1098.53 128.864C1098.53 128.864 1098.5 128.864 1098.44 128.864C1098.44 128.864 1098.44 128.832 1098.44 128.768C1098.44 128 1098.15 127.488 1097.57 127.232C1097.06 126.912 1096.55 126.752 1096.04 126.752C1093.86 126.752 1091.91 127.52 1090.18 129.056C1088.52 130.528 1087.04 132.448 1085.76 134.816C1084.48 137.184 1083.4 139.68 1082.5 142.304C1081.6 144.864 1080.87 147.232 1080.29 149.408C1080.74 149.024 1081.54 148.224 1082.69 147.008C1083.91 145.792 1085.32 144.48 1086.92 143.072C1088.52 141.664 1090.15 140.448 1091.81 139.424C1093.48 138.4 1095.01 137.888 1096.42 137.888C1097.25 137.888 1097.73 138.272 1097.86 139.04C1098.05 139.744 1098.08 140.416 1097.96 141.056C1097.64 143.424 1096.84 145.984 1095.56 148.736C1094.28 151.488 1092.61 154.112 1090.56 156.608C1088.58 159.04 1086.34 161.024 1083.84 162.56C1081.41 164.096 1078.85 164.864 1076.16 164.864C1075.84 164.864 1075.4 164.832 1074.82 164.768C1074.31 164.768 1073.99 164.704 1073.86 164.576C1072.52 168.608 1070.79 172.736 1068.68 176.96C1066.56 181.184 1064.04 184.992 1061.09 188.384C1058.08 191.84 1054.53 194.432 1050.44 196.16C1048.26 197.12 1045.86 197.6 1043.24 197.6ZM1077.6 163.232C1078.56 163.232 1079.65 162.848 1080.87 162.08C1082.15 161.248 1083.11 160.512 1083.75 159.872C1084.52 159.168 1085.41 158.08 1086.44 156.608C1087.53 155.072 1088.58 153.408 1089.6 151.616C1090.69 149.824 1091.59 148.096 1092.29 146.432C1093 144.768 1093.35 143.424 1093.35 142.4C1093.35 142.08 1093.28 141.792 1093.16 141.536C1093.03 141.28 1092.8 141.152 1092.48 141.152C1091.91 141.152 1091.14 141.504 1090.18 142.208C1089.22 142.912 1088.2 143.776 1087.11 144.8C1086.08 145.76 1085.12 146.72 1084.23 147.68C1083.33 148.576 1082.69 149.248 1082.31 149.696C1081.67 150.464 1080.8 151.584 1079.72 153.056C1078.63 154.528 1077.67 156.032 1076.84 157.568C1076 159.04 1075.59 160.288 1075.59 161.312C1075.59 162.592 1076.26 163.232 1077.6 163.232ZM1107.35 164.192C1105.43 164.192 1104.12 163.744 1103.42 162.848C1102.71 161.888 1102.36 160.736 1102.36 159.392C1102.36 157.6 1102.75 155.68 1103.51 153.632C1104.35 151.584 1105.02 149.984 1105.53 148.832C1104.7 149.728 1103.9 150.592 1103.13 151.424C1102.36 152.256 1101.82 152.864 1101.5 153.248C1101.31 153.504 1101.15 153.632 1101.02 153.632C1100.89 153.632 1100.83 153.472 1100.83 153.152C1100.83 152.64 1100.99 152.16 1101.31 151.712C1102.2 150.56 1103.23 149.344 1104.38 148.064C1105.53 146.784 1106.65 145.44 1107.74 144.032C1109.02 141.664 1110.43 138.912 1111.96 135.776C1113.56 132.576 1115.19 129.312 1116.86 125.984C1118.59 122.592 1120.25 119.488 1121.85 116.672C1123.51 113.792 1124.99 111.488 1126.27 109.76C1127.35 109.312 1128.38 108.736 1129.34 108.032C1130.36 107.328 1131.35 106.688 1132.31 106.112C1133.34 105.472 1134.39 105.152 1135.48 105.152C1136.19 105.152 1136.7 105.344 1137.02 105.728C1137.4 106.112 1137.66 106.56 1137.79 107.072C1137.85 107.264 1137.88 107.616 1137.88 108.128C1137.88 109.6 1137.37 111.392 1136.35 113.504C1135.39 115.616 1134.23 117.696 1132.89 119.744C1131.61 121.728 1130.49 123.36 1129.53 124.64C1126.97 128.224 1124.35 131.488 1121.66 134.432C1118.97 137.312 1116.54 139.744 1114.36 141.728C1112.25 143.648 1110.71 145.056 1109.75 145.952C1109.31 146.784 1108.76 147.904 1108.12 149.312C1107.55 150.656 1107.03 152.096 1106.59 153.632C1106.14 155.104 1105.91 156.48 1105.91 157.76C1105.91 158.848 1106.17 159.776 1106.68 160.544C1107.19 161.248 1108.06 161.6 1109.27 161.6C1109.47 161.6 1109.66 161.6 1109.85 161.6C1110.04 161.6 1110.27 161.568 1110.52 161.504C1111.61 161.312 1112.79 160.704 1114.07 159.68C1115.35 158.656 1116.63 157.472 1117.91 156.128C1119.19 154.784 1120.35 153.504 1121.37 152.288C1121.82 151.776 1122.23 151.296 1122.62 150.848C1123 150.336 1123.26 149.984 1123.39 149.792C1123.83 150.24 1123.8 150.816 1123.29 151.52C1122.84 152.16 1122.46 152.704 1122.14 153.152C1121.69 153.728 1121.05 154.528 1120.22 155.552C1119.39 156.512 1118.43 157.568 1117.34 158.72C1116.12 159.936 1114.62 161.152 1112.83 162.368C1111.03 163.584 1109.21 164.192 1107.35 164.192ZM1111.39 142.112C1113.37 140.448 1115.87 138.08 1118.87 135.008C1121.95 131.872 1124.95 128.096 1127.9 123.68C1128.22 123.168 1128.73 122.304 1129.43 121.088C1130.2 119.872 1130.97 118.496 1131.74 116.96C1132.57 115.36 1133.27 113.824 1133.85 112.352C1134.43 110.816 1134.71 109.504 1134.71 108.416C1134.71 107.392 1134.43 106.88 1133.85 106.88C1133.15 106.88 1132.22 107.488 1131.07 108.704C1129.72 110.112 1128.19 112.192 1126.46 114.944C1124.79 117.632 1123.03 120.64 1121.18 123.968C1119.32 127.296 1117.53 130.56 1115.8 133.76C1114.14 136.96 1112.67 139.744 1111.39 142.112ZM1137.49 164.288C1136.85 164.288 1136.3 164.16 1135.85 163.904C1135.41 163.648 1135.18 163.168 1135.18 162.464C1135.18 161.568 1135.41 160.544 1135.85 159.392C1136.3 158.24 1136.81 157.12 1137.39 156.032C1137.97 154.88 1138.48 153.952 1138.93 153.248C1136.69 155.616 1134.35 157.856 1131.92 159.968C1130.7 160.992 1129.36 161.952 1127.89 162.848C1126.41 163.744 1124.85 164.192 1123.18 164.192C1122.54 164.192 1122.09 164 1121.84 163.616C1121.58 163.168 1121.45 162.656 1121.45 162.08C1121.45 161.76 1121.49 161.536 1121.55 161.408C1121.87 158.912 1122.67 156.32 1123.95 153.632C1125.23 150.944 1126.8 148.416 1128.65 146.048C1130.51 143.68 1132.4 141.76 1134.32 140.288C1136.49 138.624 1138.89 137.792 1141.52 137.792H1152.56C1152.88 137.792 1153.04 137.92 1153.04 138.176C1153.04 138.688 1152.75 138.944 1152.17 138.944C1151.53 138.944 1150.89 139.36 1150.25 140.192C1149.61 140.96 1149.13 141.6 1148.81 142.112C1148.37 142.816 1147.66 144 1146.7 145.664C1145.74 147.328 1144.75 149.152 1143.73 151.136C1142.77 153.056 1141.93 154.848 1141.23 156.512C1140.53 158.176 1140.17 159.392 1140.17 160.16C1140.17 161.056 1140.62 161.504 1141.52 161.504C1142.48 161.504 1143.57 161.056 1144.78 160.16C1146 159.264 1147.21 158.176 1148.43 156.896C1149.71 155.552 1150.86 154.24 1151.89 152.96C1152.97 151.616 1153.84 150.56 1154.48 149.792C1154.86 150.176 1154.83 150.72 1154.38 151.424C1154 152.064 1153.65 152.576 1153.33 152.96C1152.05 154.624 1150.57 156.352 1148.91 158.144C1147.25 159.872 1145.42 161.344 1143.44 162.56C1141.52 163.712 1139.53 164.288 1137.49 164.288ZM1127.12 160.928C1127.89 160.928 1128.94 160.384 1130.29 159.296C1131.69 158.144 1133.2 156.736 1134.8 155.072C1136.4 153.344 1137.9 151.552 1139.31 149.696C1140.72 147.776 1141.87 146.048 1142.77 144.512C1143.73 142.912 1144.21 141.696 1144.21 140.864C1144.21 140.16 1143.98 139.68 1143.53 139.424C1143.15 139.168 1142.64 139.04 1142 139.04C1140.97 139.04 1139.85 139.424 1138.64 140.192C1137.49 140.896 1136.56 141.6 1135.85 142.304C1135.09 143.008 1134.16 144.128 1133.07 145.664C1132.05 147.136 1131.02 148.768 1130 150.56C1128.97 152.352 1128.11 154.08 1127.41 155.744C1126.7 157.408 1126.35 158.752 1126.35 159.776C1126.35 160.544 1126.61 160.928 1127.12 160.928ZM1159.56 164.768C1157.19 164.768 1155.53 164.32 1154.57 163.424C1153.61 162.528 1153.13 161.376 1153.13 159.968C1153.13 158.112 1153.74 156.064 1154.95 153.824C1156.17 151.52 1157.32 149.6 1158.41 148.064C1159.5 146.592 1160.71 145.216 1162.06 143.936C1163.46 142.592 1164.97 141.44 1166.57 140.48C1167.59 139.84 1168.97 139.168 1170.7 138.464C1172.49 137.696 1173.99 137.312 1175.21 137.312C1176.68 137.312 1177.7 137.664 1178.28 138.368C1178.86 139.008 1179.14 139.808 1179.14 140.768C1179.14 141.536 1179.02 142.336 1178.76 143.168C1178.5 143.936 1178.22 144.672 1177.9 145.376C1177.7 145.76 1177.42 146.048 1177.03 146.24C1176.65 146.368 1176.46 146.304 1176.46 146.048C1176.46 145.728 1176.49 145.44 1176.55 145.184C1176.62 144.928 1176.65 144.64 1176.65 144.32C1176.65 143.104 1176.36 141.92 1175.78 140.768C1175.27 139.552 1174.47 138.944 1173.38 138.944C1172.23 138.944 1170.98 139.36 1169.64 140.192C1168.3 140.96 1167.37 141.632 1166.86 142.208C1165.19 143.936 1163.56 146.08 1161.96 148.64C1160.42 151.2 1159.3 153.632 1158.6 155.936C1158.15 157.28 1157.93 158.432 1157.93 159.392C1157.93 160.48 1158.22 161.248 1158.79 161.696C1159.37 162.144 1160.07 162.368 1160.9 162.368C1161.54 162.368 1162.22 162.272 1162.92 162.08C1163.69 161.888 1164.49 161.664 1165.32 161.408C1167.24 160.768 1169.16 159.776 1171.08 158.432C1173.06 157.024 1174.86 155.552 1176.46 154.016C1178.06 152.416 1179.27 151.04 1180.1 149.888C1180.23 150.016 1180.3 150.208 1180.3 150.464C1180.3 150.784 1180.17 151.168 1179.91 151.616C1179.66 152 1179.46 152.32 1179.34 152.576C1177.99 154.368 1176.23 156.224 1174.06 158.144C1171.88 160 1169.51 161.568 1166.95 162.848C1164.46 164.128 1161.99 164.768 1159.56 164.768ZM1186.75 164.768C1184.13 164.768 1182.31 164.256 1181.28 163.232C1180.26 162.208 1179.75 160.96 1179.75 159.488C1179.75 157.632 1180.23 155.648 1181.19 153.536C1182.21 151.424 1183.17 149.632 1184.07 148.16C1185.09 146.624 1186.47 145.024 1188.19 143.36C1189.92 141.696 1191.81 140.288 1193.86 139.136C1195.91 137.984 1197.89 137.408 1199.81 137.408C1201.47 137.408 1202.63 137.824 1203.27 138.656C1203.91 139.424 1204.23 140.352 1204.23 141.44C1204.23 143.424 1203.62 145.056 1202.4 146.336C1201.25 147.616 1199.81 148.672 1198.08 149.504C1196.35 150.272 1194.69 150.912 1193.09 151.424C1192.13 151.68 1191.01 151.936 1189.73 152.192C1188.45 152.448 1187.23 152.576 1186.08 152.576C1185.63 153.728 1185.28 154.848 1185.03 155.936C1184.77 157.024 1184.64 158.016 1184.64 158.912C1184.64 160 1184.9 160.896 1185.41 161.6C1185.99 162.304 1186.91 162.656 1188.19 162.656C1188.71 162.656 1189.31 162.592 1190.02 162.464C1190.72 162.336 1191.49 162.144 1192.32 161.888C1194.24 161.248 1196.13 160.224 1197.99 158.816C1199.84 157.408 1201.54 155.904 1203.07 154.304C1204.67 152.64 1205.89 151.264 1206.72 150.176C1206.91 150.368 1207.01 150.592 1207.01 150.848C1207.01 151.168 1206.79 151.68 1206.34 152.384C1205.06 154.176 1203.39 156.032 1201.35 157.952C1199.3 159.872 1197.03 161.504 1194.53 162.848C1192.03 164.128 1189.44 164.768 1186.75 164.768ZM1186.85 150.656C1187.68 150.72 1188.61 150.72 1189.63 150.656C1190.72 150.528 1191.78 150.304 1192.8 149.984C1195.43 149.216 1197.31 148 1198.47 146.336C1199.68 144.608 1200.29 143.072 1200.29 141.728C1200.29 140.96 1200.13 140.32 1199.81 139.808C1199.49 139.296 1198.98 139.04 1198.27 139.04C1196.42 139.04 1194.75 139.744 1193.28 141.152C1191.81 142.496 1190.53 144.064 1189.44 145.856C1188.35 147.648 1187.49 149.248 1186.85 150.656Z" fill="black"/>
</svg>
